<?xml version="1.0" encoding="UTF-8" standalone="no"?> <svg width="64" height="64" viewBox="0 0 64 64" fill="none" xmlns="http://www.w3.org/2000/svg">
<path d="M27.44 10.5H14C13.0717 10.5 12.1815 10.8687 11.5251 11.5251C10.8687 12.1815 10.5 13.0717 10.5 14V27.44C10.5 28.3683 10.8687 29.2585 11.5251 29.9149C12.1815 30.5713 13.0717 30.94 14 30.94H27.44C28.3683 30.94 29.2585 30.5713 29.9149 29.9149C30.5713 29.2585 30.94 28.3683 30.94 27.44V14C30.94 13.0717 30.5713 12.1815 29.9149 11.5251C29.2585 10.8687 28.3683 10.5 27.44 10.5ZM27.94 27.44C27.9374 27.5718 27.8839 27.6975 27.7907 27.7907C27.6975 27.8839 27.5718 27.9374 27.44 27.94H14C13.8674 27.94 13.7402 27.8873 13.6464 27.7936C13.5527 27.6998 13.5 27.5726 13.5 27.44V14C13.5 13.8674 13.5527 13.7402 13.6464 13.6464C13.7402 13.5527 13.8674 13.5 14 13.5H27.44C27.5726 13.5 27.6998 13.5527 27.7936 13.6464C27.8873 13.7402 27.94 13.8674 27.94 14V27.44Z" fill="url(#paint0_linear_121:2029)"/>
<path d="M50.0001 10.5H36.5601C35.6318 10.5 34.7416 10.8687 34.0852 11.5251C33.4288 12.1815 33.0601 13.0717 33.0601 14V27.44C33.0601 28.3683 33.4288 29.2585 34.0852 29.9149C34.7416 30.5713 35.6318 30.94 36.5601 30.94H50.0001C50.9283 30.94 51.8186 30.5713 52.4749 29.9149C53.1313 29.2585 53.5001 28.3683 53.5001 27.44V14C53.5001 13.0717 53.1313 12.1815 52.4749 11.5251C51.8186 10.8687 50.9283 10.5 50.0001 10.5ZM50.5001 27.44C50.5001 27.5726 50.4474 27.6998 50.3536 27.7936C50.2598 27.8873 50.1327 27.94 50.0001 27.94H36.5601C36.4283 27.9374 36.3026 27.8839 36.2093 27.7907C36.1161 27.6975 36.0626 27.5718 36.0601 27.44V14C36.0601 13.8674 36.1127 13.7402 36.2065 13.6464C36.3003 13.5527 36.4275 13.5 36.5601 13.5H50.0001C50.1327 13.5 50.2598 13.5527 50.3536 13.6464C50.4474 13.7402 50.5001 13.8674 50.5001 14V27.44Z" fill="url(#paint1_linear_121:2029)"/>
<path d="M27.44 33.0601H14C13.0717 33.0601 12.1815 33.4288 11.5251 34.0852C10.8687 34.7416 10.5 35.6318 10.5 36.5601V50.0001C10.5 50.9283 10.8687 51.8186 11.5251 52.4749C12.1815 53.1313 13.0717 53.5001 14 53.5001H27.44C28.3683 53.5001 29.2585 53.1313 29.9149 52.4749C30.5713 51.8186 30.94 50.9283 30.94 50.0001V36.5601C30.94 35.6318 30.5713 34.7416 29.9149 34.0852C29.2585 33.4288 28.3683 33.0601 27.44 33.0601V33.0601ZM27.94 50.0001C27.94 50.1327 27.8873 50.2598 27.7936 50.3536C27.6998 50.4474 27.5726 50.5001 27.44 50.5001H14C13.8674 50.5001 13.7402 50.4474 13.6464 50.3536C13.5527 50.2598 13.5 50.1327 13.5 50.0001V36.5601C13.5 36.4275 13.5527 36.3003 13.6464 36.2065C13.7402 36.1127 13.8674 36.0601 14 36.0601H27.44C27.5718 36.0626 27.6975 36.1161 27.7907 36.2093C27.8839 36.3026 27.9374 36.4283 27.94 36.5601V50.0001Z" fill="url(#paint2_linear_121:2029)"/>
<path d="M50.0001 33.0601H36.5601C35.6318 33.0601 34.7416 33.4288 34.0852 34.0852C33.4288 34.7416 33.0601 35.6318 33.0601 36.5601V50.0001C33.0601 50.9283 33.4288 51.8186 34.0852 52.4749C34.7416 53.1313 35.6318 53.5001 36.5601 53.5001H50.0001C50.9283 53.5001 51.8186 53.1313 52.4749 52.4749C53.1313 51.8186 53.5001 50.9283 53.5001 50.0001V36.5601C53.5001 35.6318 53.1313 34.7416 52.4749 34.0852C51.8186 33.4288 50.9283 33.0601 50.0001 33.0601V33.0601ZM50.5001 50.0001C50.5001 50.1327 50.4474 50.2598 50.3536 50.3536C50.2598 50.4474 50.1327 50.5001 50.0001 50.5001H36.5601C36.4275 50.5001 36.3003 50.4474 36.2065 50.3536C36.1127 50.2598 36.0601 50.1327 36.0601 50.0001V36.5601C36.0626 36.4283 36.1161 36.3026 36.2093 36.2093C36.3026 36.1161 36.4283 36.0626 36.5601 36.0601H50.0001C50.1327 36.0601 50.2598 36.1127 50.3536 36.2065C50.4474 36.3003 50.5001 36.4275 50.5001 36.5601V50.0001Z" fill="url(#paint3_linear_121:2029)"/>
<defs>
<linearGradient id="paint0_linear_121:2029" x1="10.5" y1="20.72" x2="30.94" y2="20.72" gradientUnits="userSpaceOnUse">
<stop stop-color="#19DD33"/>
<stop offset="0.43" stop-color="#0FA922"/>
<stop offset="0.8" stop-color="#088215"/>
<stop offset="1" stop-color="#057310"/>
</linearGradient>
<linearGradient id="paint1_linear_121:2029" x1="708.806" y1="434.017" x2="1126.6" y2="434.017" gradientUnits="userSpaceOnUse">
<stop stop-color="#19DD33"/>
<stop offset="0.43" stop-color="#0FA922"/>
<stop offset="0.8" stop-color="#088215"/>
<stop offset="1" stop-color="#057310"/>
</linearGradient>
<linearGradient id="paint2_linear_121:2029" x1="10.5" y1="917.703" x2="642.914" y2="917.703" gradientUnits="userSpaceOnUse">
<stop stop-color="#19DD33"/>
<stop offset="0.43" stop-color="#0FA922"/>
<stop offset="0.8" stop-color="#088215"/>
<stop offset="1" stop-color="#057310"/>
</linearGradient>
<linearGradient id="paint3_linear_121:2029" x1="708.806" y1="917.703" x2="1126.6" y2="917.703" gradientUnits="userSpaceOnUse">
<stop stop-color="#19DD33"/>
<stop offset="0.43" stop-color="#0FA922"/>
<stop offset="0.8" stop-color="#088215"/>
<stop offset="1" stop-color="#057310"/>
</linearGradient>
</defs>
</svg>
